<?xml version="1.0" encoding="iso-8859-1"?>
<!-- Generator: Adobe Illustrator 21.0.0, SVG Export Plug-In . SVG Version: 6.00 Build 0)  -->
<svg xmlns="http://www.w3.org/2000/svg" xmlns:xlink="http://www.w3.org/1999/xlink" version="1.1" id="Capa_1" x="0px" y="0px" viewBox="0 0 512 512" style="enable-background:new 0 0 512 512;" xml:space="preserve" width="512" height="512">
<g>
	<polygon style="fill:#465A61;" points="331,61 331,421 301,451 30,451 0,421 0,61 30,30 301,30  "/>
	<polygon style="fill:#3B4A51;" points="331,61 331,421 301,451 166,451 166,30 301,30  "/>
	<rect x="30" y="91" style="fill:#F2F2FC;" width="271" height="300"/>
	<rect x="166" y="91" style="fill:#D8D8FC;" width="135" height="300"/>
	<path style="fill:#F2F2FC;" d="M331,15v46H0V15C0,6.599,6.599,0,15,0h301C324.401,0,331,6.599,331,15z"/>
	<path style="fill:#D8D8FC;" d="M331,15v46H166V0h150C324.401,0,331,6.599,331,15z"/>
	<path style="fill:#F2F2FC;" d="M331,421v76c0,8.399-6.599,15-15,15H15c-8.401,0-15-6.601-15-15v-76h151l15,15l15-15H331z"/>
	<path style="fill:#D8D8FC;" d="M181,421h150v76c0,8.399-6.599,15-15,15H166v-76L181,421z"/>
	<path style="fill:#FF7CB9;" d="M136,301h-15v-32.13c25.807-6.707,45-29.989,45-57.87c0-33.091-26.909-60-60-60s-60,26.909-60,60   c0,27.881,19.193,51.163,45,57.87V301H76c-8.291,0-15,6.709-15,15s6.709,15,15,15h15v15c0,8.291,6.709,15,15,15s15-6.709,15-15v-15   h15c8.291,0,15-6.709,15-15S144.291,301,136,301z M76,211c0-16.538,13.462-30,30-30s30,13.462,30,30s-13.462,30-30,30   S76,227.538,76,211z"/>
	<path style="fill:#979FEF;" d="M181,421v15c0,8.399-6.599,15-15,15s-15-6.601-15-15v-15H181z"/>
	<path style="fill:#737EE6;" d="M181,421v15c0,8.399-6.599,15-15,15v-30H181z"/>
	<path style="fill:#FF7CB9;" d="M346,30c-90.901,0-165,75.099-165,166c0,35.099,11.4,69.3,31.8,97.5l-29.399,44.099   c-3.001,4.801-3.301,10.501-0.601,15.601c2.701,4.799,7.8,7.8,13.2,7.8h150c90.901,0,166-74.101,166-165   C512,105.099,436.901,30,346,30z"/>
	<path style="fill:#FA5E97;" d="M512,196c0,90.899-75.099,165-166,165V30C436.901,30,512,105.099,512,196z"/>
	<path style="fill:#FDE4E4;" d="M383.2,116.499c-16.5,0-28.799,7.5-37.2,17.1c-8.401-9.6-20.7-17.1-37.2-17.1   c-29.399,0-52.2,24.3-52.2,55.501c0,38.399,36.899,62.999,79.499,99.899c3.001,2.401,6.301,3.6,9.901,3.6s6.899-1.199,9.901-3.6   c40.199-35.099,80.499-60.3,80.499-99.899C436.399,140.799,412.599,116.499,383.2,116.499z"/>
	<path style="fill:#FCCED3;" d="M436.399,172c0,39.598-40.3,64.799-80.499,99.899c-3.001,2.401-6.301,3.6-9.901,3.6V133.599   c8.401-9.6,20.7-17.1,37.2-17.1C412.599,116.499,436.399,140.799,436.399,172z"/>
</g>















</svg>
